<svg width="336" height="246" viewBox="0 0 336 246" fill="none" xmlns="http://www.w3.org/2000/svg">
<g style="mix-blend-mode:hard-light">
<path fill-rule="evenodd" clip-rule="evenodd" d="M-25.868 234.613L-75.5807 185.549C-92.9649 168.496 -104.249 149.648 -108.824 129.305C-112.468 112.209 -111.523 94.477 -106.079 77.8474C-100.465 60.4887 -90.8655 44.6248 -78.0206 31.4759C-57.4752 11.3222 -29.6097 0 -0.5541 0C28.5014 0 56.367 11.3222 76.9123 31.4759C94.4398 48.6691 105.415 71.0883 108.261 95H336V147H101.317C95.8596 160.531 87.6053 172.966 76.9123 183.455L23.5398 234.912L22.3199 236.109C19.4247 239.128 15.9489 241.556 12.0928 243.251C8.23673 244.947 4.07668 245.877 -0.147606 245.989C-4.37188 246.1 -8.57684 245.39 -12.5201 243.9C-16.4633 242.409 -20.0669 240.168 -23.1231 237.305L-25.868 234.613ZM-31.6627 76.3515C-37.4953 82.6348 -41.866 90.0867 -44.4721 98.191C-44.5048 98.3192 -44.5389 98.4519 -44.5741 98.5889C-46.1814 104.844 -50.1208 120.174 -29.5278 140.374L-0.859108 168.795L30.8595 137.981C34.9847 133.954 38.261 129.169 40.5013 123.9C42.7416 118.631 43.9019 112.981 43.916 107.272C43.9302 101.563 42.7979 95.9072 40.5838 90.6276C38.3697 85.3479 35.1172 80.5477 31.0119 76.5011C26.9067 72.4545 22.0291 69.2406 16.6576 67.0431C11.2862 64.8455 5.52608 63.7073 -0.2938 63.6934C-6.11368 63.6796 -11.8793 64.7903 -17.2616 66.9621C-22.6439 69.134 -27.5374 72.3245 -31.6627 76.3515Z" fill="#ED2C1A"/>
</g>
</svg>
