<svg width="168" height="40" viewBox="0 0 168 40" fill="none" xmlns="http://www.w3.org/2000/svg">
<g clip-path="url(#clip0_4034_1503)">
<path d="M59.4896 8.64974C58.6298 10.3147 56.9716 12.467 55.7229 12.731H55.5591C55.9686 10.7614 56.9512 8.42639 57.5653 7.18781C56.6646 5.21827 54.7403 5.88832 53.9419 8C53.4718 9.20079 53.2022 10.4695 53.1435 11.7563C52.4884 12.2233 51.6082 12.731 51.1169 12C50.4208 10.9442 52.2632 8.38578 51.8538 7.00507C51.342 5.23858 49.2744 6.33502 48.4146 7.71573C48.6808 8.16243 48.6603 8.73096 48.5375 9.38071C47.4934 11.0457 46.3266 12.5279 45.6715 12.1218C45.0164 11.7157 47.3297 6.41624 47.7391 3.16751C48.0462 0.751266 47.0226 -0.60914 43.9519 1.19797C43.9109 3.02538 40.7379 8.26396 39.4073 10.0711C39.1821 8.06091 38.7522 3.47208 38.3223 2.15228C37.5034 -0.38579 35.7224 0.32487 34.3508 1.23858C35.0673 4.56852 30.9526 9.42132 30.7684 13.0964C30.6455 15.6954 32.5494 16.0609 33.4501 15.0254C33.6139 11.8376 34.7603 8.71066 35.3744 6.61929C35.5587 8.04061 36.009 10.6802 36.3161 12.2233C36.6232 13.7665 38.1176 13.9695 39.0183 12.8325C40.5105 10.9007 41.8715 8.87251 43.0921 6.76142C42.4165 8.9137 41.045 15.5533 44.1157 15.5533C45.4258 15.5533 46.7974 14.2132 47.9029 12.67C47.9643 14.0508 48.7217 15.0457 50.0728 15.0457C51.4239 15.0457 52.1199 14.3147 53.0002 13.4822C52.8774 13.8274 52.7546 14.335 52.6727 14.5381C48.865 17.0558 49.5815 19.6142 51.5468 19.5736C52.8774 19.5533 54.4537 18.2741 55.1702 14.9035C57.1764 14.0101 59.4896 11.3706 60.4518 8.93401C60.6155 8.48731 60.0014 8.26396 59.4896 8.64974Z" fill="#FCFCFC"/>
<path d="M31.3413 33.929C30.6043 33.3198 30.6657 32.5482 31.0547 32.0406C31.4436 31.533 32.2625 31.2894 32.9585 31.7361C33.6545 32.1828 34.3301 32.5686 35.3332 32.5686C36.3363 32.5686 37.3803 32.2437 37.3803 31.6345C37.3803 31.0254 36.4182 30.9848 35.3537 30.7818C32.7538 30.2944 30.9933 29.3807 30.9728 27.0457C30.9523 24.7107 33.0199 23.6548 35.2923 23.6548C36.9914 23.6548 38.6495 24.2437 39.407 24.9543C40.1644 25.665 40.0416 26.2944 39.6322 26.863C39.4059 27.1497 39.0746 27.3362 38.7104 27.3819C38.3461 27.4275 37.9784 27.3286 37.6874 27.1066C36.9914 26.6193 36.4182 26.2538 35.4765 26.2538C34.5348 26.2538 33.716 26.4569 33.716 27.066C33.716 27.6752 34.8419 27.8173 35.8654 28.0203C38.4039 28.5076 40.1235 29.401 40.1235 31.6142C40.1235 33.8274 37.8512 35.1878 35.3537 35.1878C34.064 35.2081 32.242 34.6802 31.3413 33.929Z" fill="#FCFCFC"/>
<path d="M53.6345 29.4416C53.6345 32.6091 51.2803 35.1878 48.3734 35.1878C47.676 35.1808 46.9879 35.029 46.3532 34.7423C45.7186 34.4555 45.1515 34.0401 44.6885 33.5228V38.6396C44.6885 38.995 44.5462 39.3359 44.2928 39.5872C44.0394 39.8385 43.6958 39.9797 43.3374 39.9797C42.9791 39.9797 42.6354 39.8385 42.3821 39.5872C42.1287 39.3359 41.9863 38.995 41.9863 38.6396V25.2589C41.9863 24.9035 42.1287 24.5626 42.3821 24.3113C42.6354 24.06 42.9791 23.9188 43.3374 23.9188C43.6958 23.9188 44.0394 24.06 44.2928 24.3113C44.5462 24.5626 44.6885 24.9035 44.6885 25.2589V25.3604C45.1515 24.8431 45.7186 24.4277 46.3532 24.141C46.9879 23.8542 47.676 23.7024 48.3734 23.6954C51.2803 23.6954 53.6345 26.2741 53.6345 29.4416ZM50.9323 29.4416C50.9323 27.6548 49.5198 26.1929 47.7797 26.1929C46.0396 26.1929 44.6271 27.6548 44.6271 29.4416C44.6271 30.2709 44.9593 31.0663 45.5505 31.6527C46.1417 32.2391 46.9436 32.5685 47.7797 32.5685C48.6158 32.5685 49.4177 32.2391 50.0089 31.6527C50.6001 31.0663 50.9323 30.2709 50.9323 29.4416Z" fill="#FCFCFC"/>
<path d="M66.3274 29.4416C66.3396 30.5927 66.0066 31.7213 65.3707 32.6843C64.7348 33.6472 63.8247 34.401 62.7561 34.8499C61.6874 35.2988 60.5083 35.4225 59.3685 35.2054C58.2288 34.9882 57.1798 34.44 56.3549 33.6304C55.5299 32.8207 54.9662 31.7861 54.7352 30.658C54.5043 29.5299 54.6166 28.3592 55.0579 27.2945C55.4992 26.2299 56.2495 25.3193 57.2136 24.6785C58.1777 24.0376 59.3121 23.6955 60.4726 23.6954C62.0165 23.69 63.4995 24.2917 64.5969 25.3688C65.6943 26.4458 66.3166 27.9104 66.3274 29.4416ZM63.6252 29.4416C63.6252 27.6548 62.2127 26.1929 60.4726 26.1929C58.7326 26.1929 57.3201 27.6548 57.3201 29.4416C57.3201 30.2709 57.6522 31.0663 58.2434 31.6527C58.8346 32.2391 59.6365 32.5685 60.4726 32.5685C61.3088 32.5685 62.1106 32.2391 62.7018 31.6527C63.2931 31.0663 63.6252 30.2709 63.6252 29.4416Z" fill="#FCFCFC"/>
<path d="M75.9693 26.335H75.9283C75.7311 26.4579 75.5059 26.5297 75.2735 26.5439C75.041 26.5581 74.8086 26.5142 74.5977 26.4163C74.2411 26.2683 73.8583 26.1924 73.4718 26.1929C71.916 26.1929 70.6672 27.4924 70.6672 29.0965V33.6041C70.6672 33.9595 70.5249 34.3004 70.2715 34.5517C70.0181 34.803 69.6744 34.9442 69.3161 34.9442C68.9578 34.9442 68.6141 34.803 68.3607 34.5517C68.1073 34.3004 67.965 33.9595 67.965 33.6041V25.2589C67.9622 25.0822 67.9953 24.9067 68.0622 24.7428C68.1291 24.579 68.2286 24.4302 68.3546 24.3052C68.4806 24.1802 68.6306 24.0816 68.7958 24.0152C68.961 23.9488 69.1379 23.9161 69.3161 23.9188C69.6728 23.924 70.0134 24.0669 70.2656 24.3171C70.5179 24.5673 70.6619 24.9051 70.6672 25.2589V25.3604C71.1122 24.8376 71.6671 24.4176 72.293 24.13C72.919 23.8423 73.6008 23.694 74.2906 23.6954C74.719 23.6956 75.1455 23.7502 75.5599 23.8579C75.8169 23.9277 76.0483 24.0693 76.2267 24.2657C76.405 24.4622 76.5227 24.7053 76.5658 24.9662C76.6089 25.227 76.5756 25.4947 76.4699 25.7374C76.3642 25.98 76.1904 26.1875 75.9693 26.335Z" fill="#FCFCFC"/>
<path d="M85.6315 34.8223C84.9819 35.0576 84.2965 35.1812 83.6049 35.1878C82.7126 35.2099 81.8369 34.9465 81.1074 34.4366C80.6206 34.0948 80.2247 33.641 79.9537 33.114C79.6827 32.587 79.5447 32.0027 79.5516 31.4112V26.599H78.6713C78.4925 26.6217 78.3109 26.6063 78.1385 26.5539C77.9662 26.5015 77.8071 26.4133 77.6718 26.2952C77.5365 26.177 77.4281 26.0316 77.3538 25.8687C77.2796 25.7058 77.2412 25.5291 77.2412 25.3503C77.2412 25.1715 77.2796 24.9947 77.3538 24.8318C77.4281 24.6689 77.5365 24.5235 77.6718 24.4054C77.8071 24.2872 77.9662 24.199 78.1385 24.1466C78.3109 24.0943 78.4925 24.0789 78.6713 24.1015H79.5516V22.0305C79.5516 21.6751 79.6939 21.3342 79.9473 21.0829C80.2007 20.8316 80.5443 20.6904 80.9027 20.6904C81.261 20.6904 81.6047 20.8316 81.858 21.0829C82.1114 21.3342 82.2538 21.6751 82.2538 22.0305V24.1015H84.7103C84.8891 24.0789 85.0708 24.0943 85.2431 24.1466C85.4155 24.199 85.5746 24.2872 85.7099 24.4054C85.8452 24.5235 85.9536 24.6689 86.0278 24.8318C86.102 24.9947 86.1404 25.1715 86.1404 25.3503C86.1404 25.5291 86.102 25.7058 86.0278 25.8687C85.9536 26.0316 85.8452 26.177 85.7099 26.2952C85.5746 26.4133 85.4155 26.5015 85.2431 26.5539C85.0708 26.6063 84.8891 26.6217 84.7103 26.599H82.2538V31.4112C82.2472 31.5756 82.2811 31.7391 82.3524 31.8877C82.4237 32.0362 82.5304 32.1654 82.6632 32.264C83.1136 32.5888 83.8915 32.5888 84.7308 32.3046C85.0675 32.1873 85.4373 32.2069 85.7594 32.359C86.0816 32.5112 86.33 32.7836 86.4504 33.1168C86.5118 33.2819 86.5392 33.4576 86.5311 33.6334C86.523 33.8093 86.4796 33.9817 86.4033 34.1407C86.327 34.2996 86.2194 34.4418 86.0868 34.5588C85.9543 34.6759 85.7995 34.7655 85.6315 34.8223Z" fill="#FCFCFC"/>
<path d="M95.0073 33.929C94.2703 33.3198 94.3318 32.5482 94.7207 32.0406C94.8245 31.8953 94.9564 31.7719 95.1088 31.6778C95.2612 31.5836 95.4309 31.5205 95.6082 31.4921C95.7854 31.4638 95.9666 31.4707 96.1411 31.5126C96.3156 31.5545 96.48 31.6305 96.6245 31.7361C97.341 32.2031 97.9961 32.5686 98.9992 32.5686C100.002 32.5686 101.046 32.2437 101.046 31.6345C101.046 31.0254 100.084 30.9848 99.0197 30.7818C96.4403 30.2944 94.6593 29.3807 94.6388 27.0457C94.6183 24.7107 96.686 23.6548 98.9583 23.6548C100.657 23.6548 102.316 24.2437 103.073 24.9543C103.83 25.665 103.708 26.2944 103.298 26.863C103.072 27.1497 102.741 27.3362 102.376 27.3819C102.012 27.4275 101.644 27.3286 101.353 27.1066C100.657 26.6193 100.084 26.2538 99.1425 26.2538C98.2008 26.2538 97.4024 26.4569 97.382 27.066C97.3615 27.6752 98.5079 27.8173 99.5315 28.0203C102.07 28.5076 103.79 29.401 103.79 31.6142C103.79 33.8274 101.517 35.1878 99.0197 35.1878C97.73 35.2081 95.908 34.6802 95.0073 33.929Z" fill="#FCFCFC"/>
<path d="M116.257 29.4416V29.665C116.257 29.9989 116.123 30.3191 115.885 30.5551C115.647 30.7912 115.324 30.9239 114.988 30.9239H107.884C108.137 31.4615 108.543 31.9137 109.053 32.2242C109.562 32.5347 110.153 32.6897 110.75 32.6701C111.866 32.6309 112.959 32.3392 113.944 31.8173C114.245 31.6665 114.594 31.6406 114.915 31.7453C115.236 31.85 115.501 32.0768 115.653 32.3756C115.805 32.6745 115.831 33.021 115.726 33.339C115.62 33.657 115.391 33.9203 115.09 34.0711C113.748 34.7647 112.263 35.1465 110.75 35.1878C107.413 35.1878 104.854 32.7107 104.854 29.4619C104.854 26.2132 107.352 23.6954 110.566 23.6954C113.78 23.6954 116.257 26.2944 116.257 29.4416ZM113.432 28.4061C113.27 27.7772 112.901 27.2197 112.384 26.8216C111.867 26.4235 111.231 26.2075 110.576 26.2075C109.922 26.2075 109.286 26.4235 108.769 26.8216C108.252 27.2197 107.883 27.7772 107.72 28.4061H113.432Z" fill="#FCFCFC"/>
<path d="M118.058 33.929C117.321 33.3198 117.383 32.5482 117.771 32.0406C118.16 31.533 118.979 31.2894 119.675 31.7361C120.371 32.1828 121.047 32.5686 122.03 32.5686C123.012 32.5686 124.097 32.2437 124.097 31.6345C124.097 31.0254 123.135 30.9848 122.07 30.7818C119.471 30.2944 117.71 29.3807 117.69 27.0457C117.669 24.7107 119.737 23.6548 122.009 23.6548C123.708 23.6548 125.366 24.2437 126.124 24.9543C126.881 25.665 126.758 26.2944 126.328 26.863C126.218 27.0043 126.081 27.1227 125.925 27.2115C125.768 27.3002 125.596 27.3575 125.417 27.3801C125.239 27.4028 125.057 27.3903 124.883 27.3433C124.709 27.2964 124.547 27.216 124.404 27.1066C123.708 26.6193 123.135 26.2538 122.193 26.2538C121.252 26.2538 120.433 26.4569 120.433 27.066C120.433 27.6752 121.559 27.8173 122.582 28.0203C125.121 28.5076 126.84 29.401 126.84 31.6142C126.84 33.8274 124.568 35.1878 122.07 35.1878C120.781 35.2081 118.959 34.6802 118.058 33.929Z" fill="#FCFCFC"/>
<path d="M128.785 33.929C128.048 33.3198 128.109 32.5482 128.498 32.0406C128.602 31.8953 128.734 31.7719 128.886 31.6778C129.038 31.5836 129.208 31.5205 129.386 31.4921C129.563 31.4638 129.744 31.4707 129.918 31.5126C130.093 31.5545 130.257 31.6305 130.402 31.7361C131.139 32.2031 131.794 32.5686 132.777 32.5686C133.759 32.5686 134.824 32.2437 134.824 31.6345C134.824 31.0254 133.882 30.9848 132.797 30.7818C130.218 30.2944 128.437 29.3807 128.416 27.0457C128.396 24.7107 130.484 23.6548 132.756 23.6548C134.435 23.6548 136.113 24.2437 136.85 24.9543C137.587 25.665 137.505 26.2944 137.076 26.863C136.849 27.1497 136.518 27.3362 136.154 27.3819C135.789 27.4275 135.422 27.3286 135.131 27.1066C134.435 26.6193 133.882 26.2538 132.94 26.2538C131.999 26.2538 131.18 26.4569 131.159 27.066C131.139 27.6752 132.306 27.8173 133.309 28.0203C135.847 28.5076 137.567 29.401 137.567 31.6142C137.567 33.8274 135.295 35.1878 132.817 35.1878C131.507 35.2081 129.685 34.6802 128.785 33.929Z" fill="#FCFCFC"/>
<path d="M139.226 20.9543C139.234 20.6662 139.328 20.3869 139.495 20.1515C139.663 19.916 139.897 19.7351 140.168 19.6312C140.439 19.5274 140.735 19.5054 141.019 19.568C141.303 19.6306 141.561 19.7749 141.763 19.9829C141.964 20.1909 142.099 20.4533 142.15 20.737C142.201 21.0207 142.167 21.3132 142.051 21.5775C141.935 21.8419 141.743 22.0664 141.499 22.2229C141.255 22.3794 140.97 22.4608 140.679 22.4569C140.286 22.4462 139.914 22.2826 139.642 22.0014C139.37 21.7202 139.22 21.344 139.226 20.9543ZM139.328 33.6244V25.2589C139.333 24.9051 139.477 24.5673 139.73 24.3171C139.982 24.0669 140.323 23.924 140.679 23.9188C140.857 23.9161 141.034 23.9488 141.199 24.0152C141.365 24.0816 141.515 24.1802 141.641 24.3052C141.767 24.4302 141.866 24.579 141.933 24.7428C142 24.9067 142.033 25.0822 142.03 25.2589V33.6244C142.03 33.9798 141.888 34.3207 141.635 34.572C141.381 34.8233 141.038 34.9645 140.679 34.9645C140.321 34.9645 139.977 34.8233 139.724 34.572C139.47 34.3207 139.328 33.9798 139.328 33.6244Z" fill="#FCFCFC"/>
<path d="M155.193 29.4416C155.205 30.5927 154.872 31.7213 154.236 32.6843C153.6 33.6472 152.69 34.401 151.621 34.8499C150.553 35.2988 149.374 35.4225 148.234 35.2054C147.094 34.9882 146.045 34.44 145.22 33.6304C144.395 32.8207 143.831 31.7861 143.6 30.658C143.37 29.5299 143.482 28.3592 143.923 27.2945C144.364 26.2299 145.115 25.3193 146.079 24.6785C147.043 24.0376 148.177 23.6955 149.338 23.6954C150.882 23.69 152.365 24.2917 153.462 25.3688C154.56 26.4458 155.182 27.9104 155.193 29.4416ZM152.49 29.4416C152.49 27.6548 151.078 26.1929 149.338 26.1929C147.598 26.1929 146.185 27.6548 146.185 29.4416C146.185 30.2709 146.517 31.0663 147.109 31.6527C147.7 32.2391 148.502 32.5685 149.338 32.5685C150.174 32.5685 150.976 32.2391 151.567 31.6527C152.158 31.0663 152.49 30.2709 152.49 29.4416Z" fill="#FCFCFC"/>
<path d="M167.742 28.3046V33.6244C167.742 33.9798 167.6 34.3206 167.346 34.5719C167.093 34.8233 166.749 34.9645 166.391 34.9645C166.033 34.9645 165.689 34.8233 165.436 34.5719C165.182 34.3206 165.04 33.9798 165.04 33.6244V29.1167C165.04 27.5127 163.771 26.2132 162.235 26.2132C161.473 26.2292 160.749 26.5435 160.219 27.0874C159.69 27.6314 159.399 28.3609 159.41 29.1167V33.6244C159.41 33.9798 159.268 34.3206 159.014 34.5719C158.761 34.8233 158.417 34.9645 158.059 34.9645C157.701 34.9645 157.357 34.8233 157.104 34.5719C156.85 34.3206 156.708 33.9798 156.708 33.6244V25.2589C156.708 24.9035 156.85 24.5626 157.104 24.3113C157.357 24.06 157.701 23.9188 158.059 23.9188C158.417 23.9188 158.761 24.06 159.014 24.3113C159.268 24.5626 159.41 24.9035 159.41 25.2589V25.3604C159.855 24.8375 160.41 24.4176 161.036 24.1299C161.662 23.8423 162.344 23.694 163.034 23.6954C164.273 23.69 165.465 24.1719 166.347 25.0357C167.23 25.8996 167.731 27.0749 167.742 28.3046Z" fill="#FCFCFC"/>
<path d="M18.7723 16.7106L18.6699 16.8122C18.1123 17.4015 17.3532 17.7634 16.5409 17.8274L16.7866 18.0711C17.3477 18.625 17.6643 19.3772 17.6668 20.1624C17.6599 20.9468 17.3439 21.6973 16.7866 22.2538L9.45785 29.5025C9.18229 29.7772 8.8549 29.9953 8.49436 30.1444C8.13381 30.2936 7.74718 30.3708 7.35654 30.3718C6.9659 30.3727 6.57889 30.2973 6.21762 30.1499C5.85635 30.0025 5.52789 29.786 5.25099 29.5127C4.9741 29.2394 4.75418 28.9146 4.60381 28.557C4.45344 28.1994 4.37556 27.8159 4.37461 27.4285C4.37269 26.646 4.68425 25.8948 5.24076 25.3401L8.90512 21.6447C9.28952 21.2413 9.50369 20.7073 9.50369 20.1523C9.50369 19.5972 9.28952 19.0632 8.90512 18.6599L6.89893 16.6091C6.61739 16.3376 6.39424 16.0123 6.24295 15.6528C6.09165 15.2934 6.01536 14.9072 6.01867 14.5178C6.01769 14.1286 6.09504 13.7432 6.2462 13.384C6.39736 13.0249 6.61927 12.6993 6.89893 12.4264L8.53664 10.802C8.25573 10.2329 8.04275 9.63328 7.90203 9.01522C7.62211 7.73775 7.6714 6.41092 8.04533 5.15735L3.80777 9.36039C3.1195 10.0346 2.57303 10.8377 2.20006 11.723C1.82709 12.6083 1.63503 13.5583 1.63503 14.5178C1.63503 15.4772 1.82709 16.4272 2.20006 17.3125C2.57303 18.1978 3.1195 19.0009 3.80777 19.6751C3.95433 19.8408 4.11161 19.9968 4.27861 20.1421L2.14959 22.2741C1.43613 22.9442 0.865385 23.7494 0.471116 24.6421C0.0768457 25.5347 -0.132945 26.4968 -0.14585 27.4712C-0.158756 28.4457 0.025487 29.4129 0.395981 30.3155C0.766476 31.2182 1.3157 32.038 2.01117 32.7264C2.70664 33.4148 3.53424 33.958 4.44501 34.3237C5.35579 34.6894 6.33126 34.8702 7.31372 34.8555C8.29619 34.8408 9.2657 34.6308 10.1649 34.238C11.0642 33.8452 11.8748 33.2775 12.549 32.5685L19.8777 25.3198C21.1981 24.0045 21.9646 22.2403 22.0216 20.385C22.0786 18.5298 21.4219 16.7226 20.1848 15.3299L18.7723 16.7106Z" fill="#FCFCFC"/>
<path d="M11.2593 12.5888L14.5961 15.9188L14.7803 16.1015C14.9855 16.2958 15.2273 16.4479 15.492 16.5491C15.7567 16.6502 16.0389 16.6984 16.3225 16.6908C16.606 16.6833 16.8853 16.6202 17.1441 16.5051C17.4029 16.39 17.6362 16.2252 17.8305 16.0203L17.9124 15.9391L21.4949 12.4467C22.874 11.0789 23.6487 9.22372 23.6487 7.28934C23.6487 5.35495 22.874 3.49979 21.4949 2.13198C20.1159 0.764159 18.2455 -0.00427246 16.2952 -0.00427246C14.3449 -0.00427246 12.4745 0.764159 11.0955 2.13198C10.2333 3.02439 9.589 4.10107 9.21212 5.27918C8.84676 6.40783 8.78327 7.61127 9.02788 8.77157C9.33495 10.1523 10.0924 11.4315 11.2593 12.5888ZM13.3473 6.65989C13.5223 6.10986 13.8156 5.60411 14.2071 5.17766C14.484 4.90435 14.8125 4.68781 15.1738 4.54041C15.535 4.39301 15.922 4.31762 16.3127 4.31857C16.7033 4.31951 17.0899 4.39676 17.4505 4.5459C17.811 4.69505 18.1384 4.91317 18.414 5.18781C18.6895 5.46246 18.9078 5.78824 19.0565 6.14657C19.2051 6.5049 19.2811 6.88875 19.2801 7.27621C19.2792 7.66367 19.2013 8.04715 19.0509 8.40476C18.9006 8.76236 18.6806 9.08709 18.4037 9.3604L16.2747 11.4518L14.3504 9.52284C12.9379 8.12182 13.245 7.06599 13.3473 6.65989Z" fill="#FCFCFC"/>
</g>
<defs>
<clipPath id="clip0_4034_1503">
<rect width="167.742" height="40" fill="white"/>
</clipPath>
</defs>
</svg>
