<svg width="705" height="901" viewBox="0 0 705 901" fill="none" xmlns="http://www.w3.org/2000/svg">
<path opacity="0.5" d="M689.085 4.70311C678.139 -21.9368 661.975 -46.1051 641.55 -66.3721C621.125 -86.6392 596.854 -102.593 570.172 -113.291C529.908 -129.527 485.713 -133.281 443.298 -124.07C400.884 -114.859 362.199 -93.1047 332.245 -61.6194L240.117 26.6288C239.996 26.9925 239.895 27.336 240.117 26.6288L115.682 150.362C95.4912 170.127 79.447 193.74 68.4927 219.813C57.5384 245.886 51.8952 273.893 51.8952 302.185C51.8952 330.477 57.5384 358.483 68.4927 384.556C79.447 410.629 95.4912 434.243 115.682 454.007C119.989 458.882 124.608 463.472 129.508 467.748L67.0279 530.514C40.9236 555.209 21.4446 586.099 10.389 620.333C-0.666509 654.567 -2.94226 691.042 3.77186 726.391C10.486 761.739 25.9736 794.823 48.805 822.586C71.6363 850.35 101.076 871.899 134.405 885.245C174.684 901.516 218.906 905.289 261.347 896.076C303.788 886.864 342.494 865.09 372.453 833.573L464.097 745.79C464.246 745.623 464.408 745.467 464.581 745.325L588.916 621.592C609.106 601.827 625.15 578.214 636.105 552.141C647.059 526.068 652.702 498.061 652.702 469.769C652.702 441.477 647.059 413.471 636.105 387.398C625.15 361.325 609.106 337.711 588.916 317.947C584.603 313.077 579.985 308.487 575.09 304.205L637.569 241.439C669.097 211.879 690.909 173.402 700.11 131.118C709.312 88.8339 705.466 44.744 689.085 4.70311Z" fill="#A7B7F1"/>
</svg>
