<svg width="18" height="18" viewBox="0 0 18 18" fill="none" xmlns="http://www.w3.org/2000/svg">
<path d="M9.00098 6.55C9.91798 5.613 11.112 5 12.501 5C13.9597 5 15.3586 5.57946 16.3901 6.61091C17.4215 7.64236 18.001 9.04131 18.001 10.5V18H16.001V10.5C16.001 9.57174 15.6322 8.6815 14.9759 8.02513C14.3195 7.36875 13.4292 7 12.501 7C11.5727 7 10.6825 7.36875 10.0261 8.02513C9.36972 8.6815 9.00098 9.57174 9.00098 10.5V18H7.00098V5.5H9.00098V6.55ZM2.00098 3.5C1.60315 3.5 1.22162 3.34196 0.940316 3.06066C0.659012 2.77936 0.500977 2.39782 0.500977 2C0.500977 1.60218 0.659012 1.22064 0.940316 0.93934C1.22162 0.658035 1.60315 0.5 2.00098 0.5C2.3988 0.5 2.78033 0.658035 3.06164 0.93934C3.34294 1.22064 3.50098 1.60218 3.50098 2C3.50098 2.39782 3.34294 2.77936 3.06164 3.06066C2.78033 3.34196 2.3988 3.5 2.00098 3.5ZM1.00098 5.5H3.00098V18H1.00098V5.5Z" fill="#FCFCFC"/>
</svg>
