<svg width="760" height="561" viewBox="0 0 760 561" fill="none" xmlns="http://www.w3.org/2000/svg">
<path d="M608.429 -281.368L608.432 -281.367C636.691 -270.048 662.397 -253.168 684.029 -231.724C705.661 -210.281 722.78 -184.71 734.373 -156.524C751.722 -114.162 755.794 -67.5156 746.049 -22.7802C736.305 21.9556 713.205 62.6632 679.817 93.9371L679.792 93.9607L679.768 93.9851L613.014 160.978L611.506 162.491L613.114 163.896C618.28 168.41 623.154 173.249 627.706 178.383L627.753 178.437L627.804 178.486C649.185 199.396 666.175 224.377 677.776 251.96C689.376 279.544 695.352 309.173 695.352 339.104C695.352 369.035 689.376 398.664 677.776 426.247C666.175 453.831 649.185 478.812 627.804 499.721L627.798 499.727L627.792 499.732L495.013 631.738C494.8 631.919 494.599 632.112 494.411 632.317L396.549 725.964L396.516 725.996L396.483 726.03C364.75 759.379 323.753 782.418 278.801 792.166C233.849 801.914 187.01 797.922 144.348 780.705L144.343 780.703C109.045 766.583 77.8675 743.784 53.6877 714.41C29.508 685.036 13.1055 650.034 5.99469 612.634C-1.11608 575.234 1.29413 536.643 13.0028 500.422C24.7114 464.202 45.341 431.52 72.9869 405.393L73.0087 405.373L73.0299 405.352L139.784 338.358L141.293 336.844L139.681 335.439C134.511 330.932 129.639 326.094 125.093 320.955L125.045 320.901L124.993 320.85C103.613 299.941 86.6221 274.96 75.0217 247.376C63.4213 219.793 57.4453 190.164 57.4453 160.233C57.4453 130.302 63.4213 100.673 75.0217 73.0893C86.6221 45.5058 103.613 20.5247 124.993 -0.384308L124.999 -0.389801L125.005 -0.395325L257.116 -131.631C257.263 -131.666 257.386 -131.707 257.469 -131.749C257.629 -131.861 257.859 -132.07 257.935 -132.156C258.058 -132.303 258.132 -132.435 258.15 -132.468L258.151 -132.47C258.18 -132.522 258.201 -132.566 258.212 -132.589C258.234 -132.636 258.25 -132.673 258.256 -132.688C258.27 -132.722 258.279 -132.749 258.283 -132.758L258.293 -132.787L356.356 -226.627L356.389 -226.659L356.421 -226.693C388.149 -260.009 429.123 -283.027 474.047 -292.774C518.972 -302.521 565.782 -298.548 608.429 -281.368ZM256.543 -133.88L256.543 -133.881L257.632 -134.922C257.932 -134.645 258.193 -134.319 258.279 -134.135C258.333 -133.966 258.388 -133.689 258.398 -133.584C258.406 -133.466 258.403 -133.365 258.398 -133.299L256.543 -133.88Z" fill="#E3E8F9" stroke="#A7B7F1" stroke-width="4"/>
<path d="M371.881 91.1541L371.876 91.1498C335.416 55.013 311.827 15.1574 302.269 -27.7896C294.653 -63.8929 296.632 -101.361 308.008 -136.462L308.009 -136.468C319.804 -173.225 339.909 -206.775 366.765 -234.515C409.933 -277.114 468.153 -301 528.815 -301C589.485 -301 647.712 -277.108 690.881 -234.5C712.143 -213.502 729.024 -188.496 740.546 -160.929C752.067 -133.363 758 -103.785 758 -73.9094C758 -44.0343 752.067 -14.4563 740.546 13.1102C729.025 40.6744 712.146 65.6793 690.886 86.6756C690.884 86.6774 690.883 86.6791 690.881 86.6809L578.255 196.384L578.248 196.39L578.242 196.396L575.669 198.947L575.649 198.968L575.629 198.989C563.601 211.629 547.049 218.988 529.602 219.452C512.162 219.916 495.25 213.453 482.568 201.48L476.789 195.765L476.783 195.759L371.881 91.1541Z" fill="#E3E8F9" stroke="#A7B7F1" stroke-width="4"/>
</svg>
